<svg width="148" height="80" viewBox="0 0 148 80" fill="none" xmlns="http://www.w3.org/2000/svg">
<path d="M26 52.33C14.66 52.33 5.28 47.92 1.64 40.01C1.22 39.31 1.01 38.68 0.73 37.91L13.68 36.58C13.96 37.21 14.31 37.77 15.01 38.47C17.53 41.55 21.17 42.88 26.07 42.88C33.56 42.88 38.39 39.38 38.39 34.2C38.39 29.09 33.56 26.01 26.49 26.01C20.68 26.01 16.48 27.9 14.52 30.91H2.27L7.03 2H48.26V11.24H16.2L14.24 23.14C17.67 19.85 23.06 17.82 30.62 17.82C43.43 17.82 51.83 24.4 51.83 34.06C51.83 44.98 41.54 52.33 26 52.33ZM84.7584 52.33C68.2384 52.33 56.1984 41.97 56.1984 27.13C56.1984 11.45 69.0084 0.669997 88.1184 0.669997C99.5284 0.669997 109.468 4.17 115.278 11.31C116.048 12.22 116.678 13.2 117.238 14.18L103.168 17.12C102.748 16.49 102.328 16 101.838 15.44C98.6184 12.08 93.7184 10.33 88.3284 10.33C76.9884 10.33 70.0584 16.7 70.0584 26.57C70.0584 36.23 77.1984 42.6 87.9784 42.6C96.6584 42.67 103.238 39.1 104.358 31.61H88.8884V22.86H117.588V51H108.908L107.718 42.04C103.308 48.9 95.8884 52.33 84.7584 52.33ZM0.22 79V64.21H5.56V67.21C6.91 65.02 9.13 63.79 12.19 63.79C16.51 63.79 19.15 66.25 19.15 70.63V79H13.75V71.47C13.75 68.98 12.34 67.63 9.88 67.63C7.24 67.63 5.68 69.25 5.68 71.92V79H0.22ZM31.9445 79.57C25.6145 79.57 21.3545 76.42 21.3545 71.65C21.3545 67.03 25.5245 63.79 31.7945 63.79C38.1545 63.79 41.8745 67.18 41.8745 71.71V72.58H26.9045C27.1145 74.74 29.0045 76 32.0345 76C34.0145 76 35.4845 75.4 36.3245 74.56C36.5045 74.38 36.6545 74.2 36.7745 74.02L41.7245 74.8C41.6045 75.07 41.4245 75.34 41.2145 75.58C39.4445 78.07 36.2345 79.57 31.9445 79.57ZM27.0245 69.85H36.5345C36.1445 68.23 34.4945 67.12 31.8845 67.12C29.3345 67.12 27.5645 68.14 27.0245 69.85ZM52.2859 79.36C49.7659 79.36 47.9959 78.79 46.9459 77.71C46.0159 76.81 45.5959 75.55 45.5959 73.96V67.57H42.2659V64.21H45.5959V59.86L51.0259 59.23V64.21H56.5159V67.57H51.0259V73.12C51.0259 73.9 51.2359 74.5 51.6559 74.89C52.1359 75.4 52.9459 75.61 54.0559 75.61C55.0759 75.61 55.8259 75.46 56.6659 75.22V78.67C55.3459 79.12 53.9659 79.36 52.2859 79.36ZM63.4555 79L57.0055 64.21H62.5855L66.3355 73.63L70.1455 64.21H75.0955L79.1755 73.69L82.8955 64.21H88.2955L81.7855 79H76.7455L72.5155 69.22L68.4055 79H63.4555ZM98.9746 79.57C92.6146 79.57 88.2046 76.33 88.2046 71.68C88.2046 67.03 92.5846 63.79 98.9746 63.79C105.365 63.79 109.775 67.03 109.775 71.68C109.775 76.33 105.365 79.57 98.9746 79.57ZM93.8746 71.68C93.8746 74.26 95.8846 75.85 98.9746 75.85C102.095 75.85 104.075 74.26 104.075 71.68C104.075 69.13 102.095 67.51 98.9746 67.51C95.8846 67.51 93.8746 69.13 93.8746 71.68ZM112.175 79V64.21H117.515V68.05C119.285 65.23 121.385 64.06 125.345 64.03L125.315 68.56C120.155 68.23 117.635 69.88 117.635 72.67V79H112.175ZM127.33 79V58H132.76V69.94L140.47 64.21H147.37L139.48 69.85L147.58 79H141.1L135.13 71.98L132.76 73.69V79H127.33Z" fill="white"/>
</svg>
