<svg width="343" height="393" viewBox="0 0 343 393" fill="none" xmlns="http://www.w3.org/2000/svg">
<path d="M325.79 215.876C314.539 204.063 297.419 194.797 274.419 188.066C310.178 175.928 328.057 155.413 328.057 126.519C328.057 100.259 315.592 80.6757 290.661 67.7356C276.285 60.279 257.506 54.9906 234.387 51.826V0H177.462V48.347H149.754V0H92.8293V48.347H0.167969V99.0022H47.0139V295.923H0.167969V346.59H92.8293V392.021H149.754V346.59H176.453C176.8 346.59 177.126 346.579 177.462 346.579V392.021H234.387V343.338C306.554 334.299 342.671 306.36 342.671 259.509C342.671 242.223 337.04 227.678 325.79 215.876ZM145.479 99.0022H168.653C187.953 99.0022 202.935 101.354 213.6 106.036C224.265 110.718 229.592 118.868 229.592 130.475C229.592 143.534 225.144 152.768 216.247 158.187C207.351 163.595 193.92 166.294 175.954 166.294H145.479V99.0022ZM225.947 286.624C215.618 292.824 201.721 295.923 184.264 295.923H145.479V216.559H170.41C196.437 216.559 214.772 219.734 225.437 226.063C236.101 232.393 241.428 242.818 241.428 257.33C241.428 270.661 236.264 280.425 225.947 286.624Z" fill="#232323"/>
</svg>
