<svg width="392" height="395" viewBox="0 0 392 395" fill="none" xmlns="http://www.w3.org/2000/svg">
<path d="M349.236 0C325.652 0 306.473 19.2821 306.473 42.9923C306.473 50.4085 308.347 57.3876 311.647 63.4853L241.593 133.914C231.936 126.354 219.848 121.812 206.691 121.812C193.534 121.812 181.446 126.354 171.782 133.907L117.122 78.9554C119.631 74.692 121.164 69.7909 121.164 64.4885C121.164 48.6816 108.377 35.8269 92.6545 35.8269C76.9318 35.8269 64.1455 48.6816 64.1455 64.4885C64.1455 80.2953 76.9318 93.15 92.6545 93.15C97.9287 93.15 102.804 91.6095 107.045 89.0872L161.704 144.039C154.191 153.755 149.673 165.907 149.673 179.135C149.673 192.362 154.191 204.514 161.704 214.224L71.4438 304.973C63.8461 298.044 53.8038 293.781 42.7636 293.781C19.1795 293.781 0 313.063 0 336.773C0 360.483 19.1795 379.766 42.7636 379.766C66.3478 379.766 85.5273 360.483 85.5273 336.773C85.5273 329.357 83.6528 322.378 80.3529 316.28L171.789 224.355C179.671 230.518 189.179 234.645 199.571 235.956V308.757C179.379 312.182 163.934 329.837 163.934 351.104C163.934 374.814 183.114 394.096 206.698 394.096C230.282 394.096 249.462 374.814 249.462 351.104C249.462 329.844 234.017 312.189 213.825 308.757V235.956C224.217 234.645 233.725 230.518 241.607 224.355L296.266 279.307C293.751 283.577 292.218 288.478 292.218 293.781C292.218 309.588 305.005 322.442 320.727 322.442C336.45 322.442 349.236 309.588 349.236 293.781C349.236 277.974 336.45 265.119 320.727 265.119C315.453 265.119 310.578 266.66 306.337 269.182L251.678 214.231C259.19 204.514 263.709 192.362 263.709 179.135C263.709 165.907 259.19 153.755 251.678 144.046L320.563 74.7923C328.154 81.7212 338.196 85.9846 349.236 85.9846C372.82 85.9846 392 66.7026 392 42.9923C392 19.2821 372.82 0 349.236 0Z" fill="#232323"/>
</svg>
