<svg width="335" height="390" viewBox="0 0 335 390" fill="none" xmlns="http://www.w3.org/2000/svg">
<path d="M310.223 81.5556C305.097 73.0124 294.845 70.4494 286.302 75.5753C277.758 80.7012 275.196 91.8074 280.321 99.4962C292.282 120 299.116 143.066 299.116 167.842V369.461C299.116 378.857 306.806 387.4 317.057 387.4C327.308 387.4 334.998 379.712 334.998 369.461V167.842C334.144 137.086 325.601 107.185 310.223 81.5556Z" fill="#232323"/>
<path d="M167.552 35.4176C191.473 35.4176 214.54 42.2522 235.043 54.2126C243.587 59.3385 253.838 56.7755 258.964 48.2324C264.09 39.6892 261.527 29.4374 252.984 24.3115C227.354 8.93379 197.453 0.390625 167.552 0.390625C75.2854 0.390625 0.105469 75.5705 0.105469 167.837V233.618C0.105469 243.016 7.79432 251.559 18.0461 251.559C28.2979 251.559 35.9868 243.87 35.9868 233.618V167.837C35.1331 95.2198 94.9353 35.4176 167.552 35.4176Z" fill="#232323"/>
<path d="M261.53 278.898C252.133 278.898 243.59 286.587 243.59 296.839V370.309C243.59 379.707 251.279 388.25 261.53 388.25C270.927 388.25 279.47 380.561 279.47 370.309V296.84C279.47 286.587 271.782 278.898 261.53 278.898Z" fill="#232323"/>
<path d="M90.6626 278.899V223.368C90.6626 213.971 82.9737 205.428 72.7219 205.428C62.4701 205.428 54.7812 213.117 54.7812 223.368V278.899C54.7812 288.296 62.4701 296.84 72.7219 296.84C82.9737 296.84 90.6626 288.297 90.6626 278.899Z" fill="#232323"/>
<path d="M167.548 56.7764C106.038 56.7764 55.6328 107.181 55.6328 168.692C55.6328 178.089 63.3217 186.633 73.5735 186.633C82.971 186.633 91.5141 178.944 91.5141 168.692C91.5141 125.976 125.687 91.8034 168.403 91.8034C211.119 91.8034 245.291 125.976 245.291 168.692V233.619C245.291 243.017 252.981 251.56 263.232 251.56C272.629 251.56 281.173 243.871 281.173 233.619V168.692C279.463 107.181 229.059 56.7764 167.548 56.7764Z" fill="#232323"/>
<path d="M203.436 338.701C192.329 344.681 180.369 347.244 167.554 347.244C145.342 347.244 123.984 336.992 108.606 319.905C102.626 312.216 91.5201 311.362 83.8312 318.197C76.1423 324.177 75.288 335.284 82.1226 342.973C103.48 367.748 134.236 382.271 167.554 382.271C185.494 382.271 203.436 378 219.667 369.456C228.21 365.185 231.628 354.078 227.356 345.535C222.231 336.992 211.979 334.429 203.436 338.701Z" fill="#232323"/>
<path d="M205.144 220.805C214.541 220.805 223.085 213.116 223.085 202.865V177.236C223.085 146.48 198.309 121.705 167.554 121.705C136.799 121.705 112.023 146.48 112.023 177.236C112.023 186.633 119.712 195.176 129.964 195.176C139.362 195.176 147.905 187.487 147.905 177.236C147.905 166.13 157.302 156.732 168.408 156.732C179.514 156.732 188.913 166.13 188.913 177.236V202.865C188.058 213.116 195.747 220.805 205.144 220.805Z" fill="#232323"/>
<path d="M112.021 261.812C112.021 292.568 136.796 317.343 167.552 317.343C198.306 317.343 223.082 292.568 223.082 261.812C223.082 252.415 215.393 243.872 205.142 243.872C195.745 243.872 187.202 251.561 187.202 261.812C187.202 272.918 177.804 282.316 166.697 282.316C155.591 282.316 146.194 272.918 146.194 261.812V236.183C146.194 226.785 138.505 218.242 128.253 218.242C118.856 218.242 110.312 225.931 110.312 236.183L112.021 261.812Z" fill="#232323"/>
<path d="M18.0461 274.628C8.64864 274.628 0.105469 282.317 0.105469 292.569V372.019C0.105469 381.417 7.79432 389.96 18.0461 389.96C27.4436 389.96 35.9868 382.271 35.9868 372.019V292.569C35.1325 283.171 27.4436 274.628 18.0461 274.628Z" fill="#232323"/>
</svg>
