<svg width="259" height="356" viewBox="0 0 259 356" fill="none" xmlns="http://www.w3.org/2000/svg">
<path d="M174.597 0.419922H33.1233C15.2751 0.419922 0.855469 14.8514 0.855469 32.6637V323.261C0.855469 341.023 15.2751 355.555 33.1233 355.555H226.73C244.477 355.555 258.998 341.124 258.998 323.261V89.1785M242.814 323.261C242.814 332.192 235.553 339.358 226.73 339.358H33.1233C24.1992 339.358 17.0398 332.091 17.0398 323.261V32.6637C17.0398 23.7323 24.3 16.5166 33.1233 16.5166H166.883L242.814 92.5088V323.261Z" fill="#232323"/>
<path d="M172.635 15.2059C171.223 13.793 169.357 13.0361 167.391 13.0361H40.0341C23.4465 13.0361 10.0352 26.4584 10.0352 42.9587V312.867C10.0352 329.368 23.4465 342.891 40.0341 342.891H219.826C236.313 342.891 249.825 329.469 249.825 312.867V95.4872C249.825 93.5193 249.069 91.6018 247.657 90.2394L172.635 15.2059ZM234.801 312.918C234.801 321.193 228.045 327.904 219.826 327.904H40.0341C31.7655 327.904 25.0599 321.143 25.0599 312.918V43.0092C25.0599 34.7338 31.8159 28.0227 40.0341 28.0227H164.265L234.801 98.6157V312.918Z" fill="#232323"/>
<path d="M169.353 27.6668C168.042 26.3549 166.328 25.6484 164.513 25.6484H46.8868C31.5596 25.6484 19.207 38.0615 19.207 53.3003V302.571C19.207 317.81 31.61 330.273 46.8868 330.273H212.915C228.141 330.273 240.594 317.86 240.594 302.571V101.792C240.594 99.9755 239.889 98.2094 238.578 96.9479L169.353 27.6668ZM226.78 302.571C226.78 310.241 220.578 316.397 212.965 316.397H46.8868C39.2232 316.397 33.0721 310.191 33.0721 302.571V53.3003C33.0721 45.6305 39.2736 39.4744 46.8868 39.4744H161.639L226.78 104.668V302.571Z" fill="#232323"/>
<path d="M166.727 37.8113C165.516 36.6003 163.903 35.9443 162.189 35.9443H52.4783C38.2099 35.9443 26.6641 47.4996 26.6641 61.7292V294.247C26.6641 308.477 38.2099 320.083 52.4783 320.083H207.364C221.582 320.083 233.178 308.527 233.178 294.247V106.941C233.178 105.225 232.523 103.611 231.313 102.4L166.727 37.8113ZM220.22 294.197C220.22 301.362 214.422 307.115 207.313 307.115H52.4783C45.3189 307.115 39.5712 301.312 39.5712 294.197V61.7292C39.5712 54.564 45.3693 48.8116 52.4783 48.8116H159.517L220.271 109.615V294.197H220.22Z" fill="#232323"/>
<path d="M53.043 146.804V255.595C53.043 266.797 71.0928 285.971 82.2857 285.971H177.375C188.568 285.971 206.214 266.847 206.214 255.595V146.804C206.214 135.602 188.568 117.688 177.375 117.688H82.3361C71.0928 117.688 53.043 135.551 53.043 146.804ZM99.3775 262.457H82.3361C78.5547 262.457 75.5296 259.379 75.5296 255.645V235.259H99.3775V262.457ZM143.443 262.457H119.847V235.259H143.443V262.457ZM184.232 255.595C184.232 259.379 181.156 262.407 177.425 262.407H163.812V228.447C157.913 222.544 157.107 220.778 150.25 213.865H75.4792V193.782H184.181V255.595H184.232ZM160.535 140.042H177.375C181.156 140.042 184.181 143.12 184.181 146.854V167.24H160.535V140.042ZM116.822 140.042H141.628V167.24H119.595V140.042H116.822ZM99.3271 167.189H75.4792V146.804C75.4792 143.019 78.5547 139.992 82.2857 139.992H99.2767V167.189H99.3271Z" fill="#232323"/>
</svg>
