<svg width="318" height="50" viewBox="0 0 318 50" fill="none" xmlns="http://www.w3.org/2000/svg">
<path d="M0 1.37659V48.5256H23.2877V29.9986H48.8697V19.6167H23.2877V11.7585H51.3362V1.37659H0Z" fill="black"/>
<path d="M68.0248 1.37659H55.75V48.9844H82.766V38.1436H68.0248V1.37659Z" fill="black"/>
<path d="M99.6889 1.37659H87.4141V48.9844H99.6889V1.37659Z" fill="black"/>
<path d="M290.582 38.0863C288.746 39.004 285.878 39.4629 282.093 39.4629C278.766 39.4629 275.382 39.0614 271.997 38.2583C268.613 37.4553 264.713 36.0214 261.271 34.4153C262.361 32.7519 263.107 30.9164 263.508 28.9662C263.738 27.8764 263.852 26.7292 263.967 25.5247C265.975 26.3277 268.212 27.016 270.678 27.5322C273.546 28.1632 276.529 28.6794 279.511 29.1957C282.035 29.6545 284.215 30.056 285.993 30.4575C287.771 30.8591 289.205 31.2606 290.352 31.6621C291.442 32.121 292.245 32.5798 292.704 33.0961C293.163 33.6123 293.392 34.2432 293.392 34.9315C293.392 36.0787 292.417 37.1685 290.582 38.0863ZM217.793 22.1405V31.6621H236.894C236.492 33.0387 235.747 34.1859 234.657 35.161C233.567 36.1361 232.133 36.8817 230.412 37.5127C228.692 38.1436 226.799 38.5451 224.619 38.8319C222.497 39.1187 220.26 39.2334 217.965 39.2334C214.065 39.2334 210.681 38.8893 207.756 38.201C204.83 37.5127 202.364 36.5376 200.356 35.2757C198.349 34.0138 196.915 32.5225 195.882 30.8591C195.825 30.8017 195.768 30.687 195.768 30.6296C194.85 28.9662 194.391 27.2455 194.391 25.2953C194.391 24.2054 194.506 23.173 194.792 22.1405C195.079 21.1081 195.538 20.1903 196.112 19.2726C197.259 17.4944 198.865 15.9458 200.872 14.6839C202.88 13.422 205.346 12.4469 208.214 11.7586C211.082 11.0703 214.237 10.7261 217.736 10.7261C221.923 10.7261 225.709 11.2997 228.978 12.3895C232.248 13.5367 234.944 15.3722 237.009 17.9533L255.421 13.9382C255.363 14.4544 255.306 14.9707 255.306 15.5442C255.306 17.896 255.994 19.7888 257.371 21.3375C257.6 21.6243 257.887 21.9111 258.174 22.1405H217.793ZM167.432 35.161C166.342 36.1361 164.908 36.8817 163.188 37.5127C161.467 38.1436 159.574 38.5451 157.394 38.8319C155.272 39.1187 153.035 39.2334 150.741 39.2334C146.84 39.2334 143.456 38.8893 140.531 38.201C137.606 37.5127 135.139 36.5376 133.132 35.2757C131.124 34.0138 129.69 32.5225 128.658 30.8591C127.683 29.1383 127.166 27.3028 127.166 25.2953C127.166 23.0583 127.74 21.1081 128.887 19.2726C130.034 17.4944 131.64 15.9458 133.648 14.6839C135.655 13.422 138.122 12.4469 140.99 11.7586C143.858 11.0703 147.013 10.7261 150.511 10.7261C154.699 10.7261 158.886 11.4144 162.27 12.2174C166.744 13.2499 169.497 14.6265 172.136 16.8061C171.161 18.5269 170.53 20.305 170.243 22.1979H150.511V31.6621H169.669C169.325 33.0387 168.579 34.1859 167.432 35.161ZM312.55 25.0658C308.994 22.8288 303.43 21.0507 295.859 19.7314C293.966 19.3873 292.016 19.1005 290.065 18.8137C288.115 18.5269 286.395 18.1828 284.846 17.7812C283.297 17.3797 282.035 16.9209 281.118 16.3473C280.142 15.831 279.684 15.1427 279.684 14.2824C279.684 13.0778 280.659 12.1027 282.551 11.3571C284.444 10.6114 286.911 10.2099 289.951 10.2099C292.302 10.2099 294.769 10.4967 297.35 11.0129C299.874 11.5291 302.398 12.3322 304.979 13.422L314.271 3.84304C309.854 2.58115 305.208 1.66341 300.333 0.9751C295.515 0.344153 290.868 0 286.395 0C281.634 0 277.332 0.401512 273.489 1.14718C269.646 1.89284 266.376 2.9253 263.738 4.30191C261.099 5.67852 259.034 7.28457 257.543 9.17741C257.199 9.63628 256.855 10.1525 256.568 10.6114C252.782 7.39929 248.079 4.93286 242.4 3.21209C235.345 1.08982 227.143 0 217.793 0C210.566 0 204.027 0.630947 198.177 1.83548C192.498 2.98266 187.68 4.64607 183.607 6.65363C181.084 5.27701 178.33 4.12984 175.233 3.21209C168.178 1.08982 159.976 0 150.626 0C143.399 0 136.86 0.630947 131.009 1.83548C125.159 3.04002 120.111 4.76078 115.981 6.88306C111.794 9.0627 108.582 11.6438 106.345 14.7412C104.108 17.7812 102.961 21.1654 102.961 24.8364C102.961 28.5647 104.108 31.9489 106.402 34.9889C108.697 38.0289 111.909 40.6674 116.039 42.9044C120.169 45.084 125.101 46.8048 130.837 48.0093C136.573 49.2139 142.94 49.8448 149.938 49.8448C154.985 49.8448 159.861 49.5007 164.45 48.8697C169.038 48.1814 173.283 47.2063 177.126 45.9444C179.535 45.1414 181.772 44.2237 183.78 43.1912C187.795 45.2561 192.555 46.8622 198.119 48.0667C203.855 49.2712 210.222 49.9022 217.22 49.9022C222.267 49.9022 227.143 49.558 231.732 48.9271C236.32 48.2388 240.565 47.2637 244.408 46.0018C248.251 44.7399 251.578 43.1338 254.446 41.241C255.593 40.4953 256.625 39.6923 257.543 38.8319L251.807 44.5105C261.501 48.0667 271.997 49.8448 283.297 49.8448C288.746 49.8448 293.679 49.4433 297.981 48.6977C302.283 47.952 305.954 46.8622 308.937 45.4282C311.919 44.0516 314.156 42.3308 315.705 40.3806C317.254 38.4304 317.999 36.2508 317.999 33.7844C317.885 30.2281 316.106 27.3028 312.55 25.0658Z" fill="black"/>
</svg>
