<svg width="434" height="63" viewBox="0 0 434 63" fill="none" xmlns="http://www.w3.org/2000/svg">
<path d="M0 1.68945V61.2551H31.7537V37.8905H66.6098V24.7726H31.7537V14.8074H70.0164V1.68945H0Z" fill="#FFFA00"/>
<path d="M92.7671 1.68945H76.0386V61.2551H112.78V48.1372H92.7671V1.68945Z" fill="#FFFA00"/>
<path d="M135.896 1.68945H119.168V61.2551H135.896V1.68945Z" fill="#FFFA00"/>
<path d="M396.131 48.0241C393.576 49.2064 389.743 49.7694 384.512 49.7694C379.95 49.7694 375.387 49.2627 370.703 48.2493C366.08 47.2359 360.788 45.4343 356.043 43.4075C357.564 41.2681 358.537 38.9598 359.085 36.5389C359.389 35.1877 359.571 33.7239 359.693 32.2038C362.43 33.2172 365.472 34.0617 368.818 34.7373C372.772 35.5255 376.786 36.2011 380.923 36.8204C384.39 37.3834 387.31 37.9464 389.743 38.3968C392.177 38.8472 394.123 39.4102 395.644 39.9169C397.165 40.4799 398.26 41.0992 398.868 41.7185C399.537 42.3941 399.841 43.126 399.841 44.0268C399.902 45.5469 398.625 46.8418 396.131 48.0241ZM296.855 27.9249V39.9169H322.951C322.404 41.6622 321.37 43.126 319.849 44.3646C318.328 45.6032 316.442 46.5603 314.07 47.3485C311.758 48.1367 309.143 48.6435 306.223 48.9813C303.303 49.3191 300.261 49.4879 297.159 49.4879C291.867 49.4879 287.243 49.0375 283.229 48.193C279.214 47.3485 275.868 46.1099 273.191 44.5335C270.515 42.9571 268.447 41.0992 267.108 38.9035C267.048 38.7909 266.987 38.6783 266.926 38.5657C265.709 36.4826 265.101 34.2869 265.101 31.866C265.101 30.4585 265.283 29.1635 265.648 27.9249C266.013 26.63 266.622 25.4477 267.413 24.2654C268.994 22.0134 271.123 20.0429 273.921 18.4665C276.659 16.8338 280.005 15.5952 283.898 14.7507C287.791 13.9062 292.11 13.4558 296.855 13.4558C302.573 13.4558 307.683 14.1877 312.184 15.5952C316.686 17.0027 320.335 19.3673 323.134 22.6327L348.196 17.5657C348.074 18.2413 348.014 18.9169 348.014 19.5925C348.014 22.5201 348.987 24.9973 350.873 26.9115C351.238 27.2493 351.603 27.5871 351.968 27.9249H296.855ZM228.237 44.3646C226.717 45.6032 224.831 46.5603 222.459 47.3485C220.147 48.1367 217.531 48.6435 214.611 48.9813C211.691 49.3191 208.65 49.4879 205.548 49.4879C200.255 49.4879 195.632 49.0375 191.617 48.193C187.602 47.3485 184.257 46.1099 181.58 44.5335C178.904 42.9571 176.835 41.0992 175.497 38.9035C174.159 36.7641 173.49 34.3995 173.49 31.866C173.49 29.0509 174.28 26.5737 175.862 24.2654C177.444 22.0134 179.573 20.0429 182.371 18.4665C185.108 16.8338 188.454 15.5952 192.347 14.7507C196.24 13.9062 200.559 13.4558 205.304 13.4558C211.022 13.4558 216.74 14.3003 221.364 15.3137C227.447 16.6086 231.218 18.3539 234.807 21.1126C233.53 23.252 232.617 25.504 232.191 27.8686H205.243V39.8606H231.34C230.792 41.6622 229.758 43.126 228.237 44.3646ZM426.12 31.6408C421.315 28.8257 413.711 26.5737 403.37 24.8847C400.754 24.4906 398.138 24.0965 395.522 23.7024C392.846 23.3083 390.473 22.9142 388.405 22.4075C386.276 21.9008 384.573 21.3378 383.295 20.6059C382.018 19.9303 381.349 19.0295 381.349 18.0161C381.349 16.496 382.626 15.2574 385.242 14.3003C387.858 13.3432 391.203 12.8928 395.279 12.8928C398.503 12.8928 401.849 13.2306 405.316 13.9062C408.784 14.5818 412.251 15.5952 415.718 16.9464L428.371 4.84183C422.288 3.26542 416.022 2.08312 409.392 1.23861C402.822 0.450409 396.496 0 390.413 0C383.904 0 378.064 0.450402 372.833 1.40751C367.601 2.36461 363.16 3.65952 359.511 5.40483C355.861 7.09384 353.062 9.17694 351.055 11.5416C350.568 12.1609 350.143 12.7802 349.717 13.3995C344.546 9.34586 338.159 6.19304 330.433 4.05363C320.822 1.35121 309.629 0 296.855 0C287 0 278.119 0.788207 270.089 2.30831C262.364 3.77212 255.733 5.79893 250.197 8.44504C246.791 6.69973 242.959 5.23593 238.761 4.05363C229.15 1.35121 217.957 0 205.183 0C195.328 0 186.447 0.788207 178.417 2.30831C170.448 3.82842 163.574 5.96783 157.917 8.72654C152.26 11.4853 147.88 14.7507 144.777 18.6354C141.675 22.5201 140.154 26.7426 140.154 31.4156C140.154 36.0885 141.736 40.3673 144.838 44.252C148.001 48.1367 152.32 51.4585 157.978 54.2172C163.574 56.9759 170.326 59.1153 178.174 60.6354C186.021 62.1555 194.659 62.9437 204.209 62.9437C211.144 62.9437 217.714 62.5496 223.979 61.7051C230.245 60.8606 236.024 59.622 241.255 58.0456C244.54 57.0322 247.582 55.9062 250.319 54.555C255.794 57.1448 262.303 59.2279 269.846 60.6917C277.693 62.2118 286.331 63 295.881 63C302.816 63 309.386 62.6059 315.651 61.7614C321.917 60.9169 327.696 59.6783 332.927 58.1019C338.159 56.4692 342.721 54.4987 346.614 52.0778C348.135 51.1207 349.534 50.1072 350.812 49.0938L342.965 56.3003C356.165 60.8043 370.46 63 385.911 63C393.393 63 400.024 62.4933 405.924 61.5362C411.825 60.5791 416.813 59.1716 420.828 57.4263C424.904 55.681 427.945 53.5415 430.074 51.0643C432.203 48.5871 433.238 45.8284 433.238 42.7882C433.298 38.1153 430.926 34.4558 426.12 31.6408Z" fill="#FFFA00"/>
</svg>
