<svg width="372" height="427" viewBox="0 0 372 427" fill="none" xmlns="http://www.w3.org/2000/svg">
<path d="M170.913 427V381.956C111.645 377.36 57.8898 355.757 21.1344 318.067C13.3238 310.253 5.97275 301.98 0 293.247L75.3486 272.103C79.4836 278.079 84.5375 283.594 89.5913 288.65C109.347 307.495 138.292 318.526 170.913 322.663V239.469L140.13 237.171C52.3765 228.438 19.756 194.425 19.756 149.841C19.756 92.3864 74.8892 49.1808 170.913 44.1248V0H215.019V44.5845C265.098 49.1808 314.259 68.0258 344.582 99.2809C352.393 107.095 358.365 114.909 363.419 123.182L289.449 142.487C285.314 137.431 281.179 132.834 276.125 128.698C259.585 114.449 237.991 106.635 215.019 103.418V177.419L242.586 179.717C327.123 187.071 371.689 215.109 371.689 270.724C371.689 331.856 315.178 377.36 215.019 382.416V427H170.913ZM100.159 140.648C100.159 158.114 117.158 169.605 155.751 172.822L170.913 174.201V102.039C124.05 105.256 100.159 120.884 100.159 140.648ZM215.019 324.042C260.963 321.284 286.233 305.197 286.233 281.296C286.233 260.612 269.693 249.122 225.586 244.066L215.019 243.146V324.042Z" fill="#232323"/>
</svg>
